<svg id="Capa_1" enable-background="new 0 0 514.049 514.049" height="512" viewBox="0 0 514.049 514.049" width="512" xmlns="http://www.w3.org/2000/svg"><g><path d="m512.579 413.871-38.327-172.9c-3.961-17.869-17.216-31.409-34.079-36.08v-9.416c0-12.548-10.208-22.757-22.757-22.757h-33.558c-12.548 0-22.757 10.208-22.757 22.757v10.981c-7.102 2.794-13.45 7.234-18.509 12.911h-171.135c-4.82-5.408-10.812-9.689-17.509-12.499v-11.393c0-12.548-10.209-22.757-22.757-22.757h-33.558c-12.548 0-22.757 10.208-22.757 22.757v9.146c-17.339 4.405-31.04 18.128-35.079 36.349l-23.165 104.502c-.896 4.044 1.655 8.049 5.699 8.945.547.121 1.092.179 1.63.179 3.44 0 6.54-2.381 7.315-5.878l23.165-104.501c3.407-15.369 16.781-26.103 32.523-26.103h48.395c14.901 0 28.099 10.027 32.093 24.383l3.662 13.16c1.849 6.644 7.957 11.284 14.852 11.284h95.685c4.142 0 7.5-3.358 7.5-7.5s-3.358-7.5-7.5-7.5h-95.685c-.186 0-.351-.125-.401-.305l-3.662-13.16c-.389-1.4-.844-2.769-1.351-4.109h152.943c-.507 1.341-.961 2.709-1.351 4.109l-3.662 13.159c-.05.18-.215.305-.401.305h-14.469c-4.142 0-7.5 3.358-7.5 7.5s3.358 7.5 7.5 7.5h14.469c6.896 0 13.003-4.64 14.852-11.284l3.662-13.16c3.994-14.356 17.191-24.383 32.093-24.383h48.395c15.742 0 29.116 10.734 32.523 26.103l38.327 172.9c4.063 18.333-3.214 37.189-18.54 48.038-11.365 8.045-25.591 10.574-39.033 6.934-13.441-3.638-24.45-12.997-30.206-25.677l-21.367-47.075c4.925-8.62 7.755-18.583 7.755-29.201 0-4.142-3.358-7.5-7.5-7.5s-7.5 3.358-7.5 7.5c0 24.298-19.769 44.067-44.067 44.067s-44.067-19.769-44.067-44.067c0-4.142-3.358-7.5-7.5-7.5s-7.5 3.358-7.5 7.5c0 11.298 3.193 21.862 8.718 30.846l-1.6 1.096c-3.075 2.106-6.67 3.22-10.396 3.22h-36.214c-3.727 0-7.322-1.113-10.396-3.22l-1.598-1.095c5.525-8.984 8.718-19.548 8.718-30.847 0-4.142-3.358-7.5-7.5-7.5s-7.5 3.358-7.5 7.5c0 24.298-19.769 44.067-44.067 44.067s-44.067-19.769-44.067-44.067c0-4.142-3.358-7.5-7.5-7.5s-7.5 3.358-7.5 7.5c0 10.618 2.83 20.581 7.755 29.201l-21.367 47.075c-5.755 12.68-16.765 22.039-30.206 25.677-13.44 3.639-27.667 1.111-39.033-6.934-15.327-10.849-22.604-29.705-18.541-48.038l8.176-36.886c.896-4.044-1.655-8.049-5.699-8.945-4.043-.896-8.048 1.655-8.945 5.699l-8.176 36.887c-5.374 24.244 4.25 49.18 24.519 63.527 10.524 7.45 22.903 11.322 35.483 11.322 5.385 0 10.807-.71 16.135-2.152 17.775-4.812 32.334-17.188 39.946-33.956l18.12-39.921c10.623 10.213 25.035 16.512 40.9 16.512 15.864 0 30.277-6.298 40.899-16.511l2.57 1.761c5.582 3.824 12.108 5.845 18.874 5.845h36.214c6.766 0 13.292-2.021 18.874-5.845l2.572-1.762c10.623 10.213 25.035 16.512 40.9 16.512s30.277-6.299 40.9-16.512l18.12 39.921c7.611 16.768 22.171 29.145 39.946 33.956 5.329 1.442 10.749 2.152 16.135 2.152 12.579 0 24.96-3.873 35.483-11.322 20.269-14.347 29.893-39.283 24.519-63.527zm-422.703-210.757v-7.639c0-4.277 3.479-7.757 7.757-7.757h33.558c4.277 0 7.757 3.479 7.757 7.757v7.639h-3.589zm288.813 0h-2.589v-7.639c0-4.277 3.48-7.757 7.757-7.757h33.558c4.277 0 7.757 3.479 7.757 7.757v7.639z"/><path d="m147.506 370.136c0 16.027 13.04 29.067 29.067 29.067s29.067-13.04 29.067-29.067-13.04-29.067-29.067-29.067-29.067 13.04-29.067 29.067zm29.067-14.067c7.756 0 14.067 6.311 14.067 14.067s-6.311 14.067-14.067 14.067-14.067-6.311-14.067-14.067 6.31-14.067 14.067-14.067z"/><path d="m308.409 370.136c0 16.027 13.04 29.067 29.067 29.067s29.067-13.04 29.067-29.067-13.04-29.067-29.067-29.067-29.067 13.04-29.067 29.067zm43.134 0c0 7.756-6.311 14.067-14.067 14.067s-14.067-6.311-14.067-14.067 6.311-14.067 14.067-14.067 14.067 6.311 14.067 14.067z"/><path d="m266.18 358.888c4.142 0 7.5-3.358 7.5-7.5s-3.358-7.5-7.5-7.5h-16.295c-4.142 0-7.5 3.358-7.5 7.5s3.358 7.5 7.5 7.5z"/><path d="m227.487 311.359c4.142 0 7.5-3.358 7.5-7.5s-3.358-7.5-7.5-7.5h-9.073c-4.142 0-7.5 3.358-7.5 7.5s3.358 7.5 7.5 7.5z"/><path d="m287.562 311.359h9.073c4.142 0 7.5-3.358 7.5-7.5s-3.358-7.5-7.5-7.5h-9.073c-4.142 0-7.5 3.358-7.5 7.5s3.358 7.5 7.5 7.5z"/><path d="m166.689 125.81 81.88 57.629c2.529 1.779 5.491 2.669 8.454 2.669 2.962 0 5.926-.89 8.454-2.669l29.414-20.702c3.387-2.384 4.2-7.063 1.816-10.45s-7.062-4.2-10.45-1.816l-29.234 20.576-81.568-57.409v-48.695l37.799-24.538 33.931 30.612c5.609 5.06 14.069 5.06 19.677 0l33.931-30.612 37.799 24.537v48.695l-25.804 18.161c-3.388 2.384-4.201 7.063-1.817 10.45 2.383 3.387 7.063 4.2 10.45 1.816l25.937-18.254c3.903-2.748 6.234-7.238 6.234-12.011v-49.026c0-4.994-2.5-9.6-6.69-12.32l-38.141-24.76c-5.571-3.618-12.906-3.036-17.837 1.413l-33.9 30.584-33.899-30.584c-4.932-4.45-12.267-5.031-17.836-1.414l-38.142 24.76c-4.189 2.72-6.69 7.325-6.69 12.32v49.026c-.002 4.775 2.329 9.265 6.232 12.012z"/><path d="m93.549 64.614c4.142 0 7.5-3.358 7.5-7.5v-6.895c0-4.142-3.358-7.5-7.5-7.5s-7.5 3.358-7.5 7.5v6.895c0 4.142 3.358 7.5 7.5 7.5z"/><path d="m114.617 86.447h6.895c4.142 0 7.5-3.358 7.5-7.5s-3.358-7.5-7.5-7.5h-6.895c-4.142 0-7.5 3.358-7.5 7.5s3.358 7.5 7.5 7.5z"/><path d="m92.783 114.41c4.142 0 7.5-3.358 7.5-7.5v-6.895c0-4.142-3.358-7.5-7.5-7.5s-7.5 3.358-7.5 7.5v6.895c0 4.142 3.358 7.5 7.5 7.5z"/><path d="m64.821 85.681h6.895c4.142 0 7.5-3.358 7.5-7.5s-3.358-7.5-7.5-7.5h-6.895c-4.142 0-7.5 3.358-7.5 7.5s3.358 7.5 7.5 7.5z"/><path d="m421.5 64.614c4.142 0 7.5-3.358 7.5-7.5v-6.895c0-4.142-3.358-7.5-7.5-7.5s-7.5 3.358-7.5 7.5v6.895c0 4.142 3.357 7.5 7.5 7.5z"/><path d="m393.538 86.447h6.895c4.142 0 7.5-3.358 7.5-7.5s-3.358-7.5-7.5-7.5h-6.895c-4.142 0-7.5 3.358-7.5 7.5s3.358 7.5 7.5 7.5z"/><path d="m422.266 92.515c-4.142 0-7.5 3.358-7.5 7.5v6.895c0 4.142 3.358 7.5 7.5 7.5s7.5-3.358 7.5-7.5v-6.895c0-4.143-3.358-7.5-7.5-7.5z"/><path d="m443.333 85.681h6.895c4.142 0 7.5-3.358 7.5-7.5s-3.358-7.5-7.5-7.5h-6.895c-4.142 0-7.5 3.358-7.5 7.5s3.358 7.5 7.5 7.5z"/><path d="m397.637 239.107c-11.389 0-20.654 9.266-20.654 20.654s9.266 20.654 20.654 20.654 20.654-9.266 20.654-20.654-9.266-20.654-20.654-20.654zm0 26.309c-3.118 0-5.654-2.537-5.654-5.654s2.537-5.654 5.654-5.654 5.654 2.537 5.654 5.654-2.537 5.654-5.654 5.654z"/><path d="m397.637 311.302c-11.389 0-20.654 9.266-20.654 20.654s9.266 20.654 20.654 20.654 20.654-9.266 20.654-20.654-9.266-20.654-20.654-20.654zm0 26.308c-3.118 0-5.654-2.537-5.654-5.654s2.537-5.654 5.654-5.654 5.654 2.537 5.654 5.654-2.537 5.654-5.654 5.654z"/><path d="m436.342 316.513c11.389 0 20.655-9.266 20.655-20.654s-9.266-20.654-20.655-20.654-20.654 9.266-20.654 20.654 9.265 20.654 20.654 20.654zm0-26.309c3.118 0 5.655 2.537 5.655 5.654s-2.537 5.654-5.655 5.654-5.654-2.537-5.654-5.654 2.536-5.654 5.654-5.654z"/><path d="m358.932 275.204c-11.389 0-20.654 9.266-20.654 20.654s9.266 20.654 20.654 20.654 20.654-9.266 20.654-20.654-9.266-20.654-20.654-20.654zm0 26.309c-3.118 0-5.654-2.537-5.654-5.654s2.537-5.654 5.654-5.654 5.654 2.537 5.654 5.654-2.537 5.654-5.654 5.654z"/><path d="m115.453 246.359h-15.63c-8.3 0-15.053 6.753-15.053 15.053v11.02h-11.02c-8.3 0-15.053 6.753-15.053 15.053v15.63c0 8.3 6.753 15.053 15.053 15.053h11.02v11.02c0 8.3 6.753 15.053 15.053 15.053h15.63c8.3 0 15.053-6.753 15.053-15.053v-11.02h11.02c8.3 0 15.053-6.753 15.053-15.053v-15.63c0-8.3-6.753-15.053-15.053-15.053h-11.02v-11.02c0-8.3-6.753-15.053-15.053-15.053zm26.073 41.073.053.053-.053 15.684h-14.961c-6.098 0-11.059 4.961-11.059 11.059l-.053 15.015-15.684-.053v-14.961c0-6.098-4.961-11.059-11.059-11.059l-15.015-.053.053-15.684h14.962c6.098 0 11.059-4.961 11.059-11.059l.053-15.015 15.684.053v14.961c0 6.098 4.961 11.059 11.059 11.059z"/></g></svg>